<?xml version="1.0" encoding="us-ascii" standalone="no"?><svg xmlns="http://www.w3.org/2000/svg" xmlns:xlink="http://www.w3.org/1999/xlink" contentStyleType="text/css" height="910px" preserveAspectRatio="none" style="width:4916px;height:910px;background:#FFFFFF;" version="1.1" viewBox="0 0 4916 910" width="4916px" zoomAndPan="magnify"><defs/><g><text fill="#000000" font-family="sans-serif" font-size="14" font-weight="bold" lengthAdjust="spacing" textLength="104" x="2399.25" y="22.9883">Infraestructure</text><!--cluster repository--><g id="cluster_repository"><path d="M2746,607.2763 L2818,607.2763 A3.75,3.75 0 0 1 2820.5,609.7763 L2827.5,629.6825 L4907,629.6825 A2.5,2.5 0 0 1 4909.5,632.1825 L4909.5,900.6563 A2.5,2.5 0 0 1 4907,903.1563 L2746,903.1563 A2.5,2.5 0 0 1 2743.5,900.6563 L2743.5,609.7763 A2.5,2.5 0 0 1 2746,607.2763 " fill="none" style="stroke:#000000;stroke-width:1.5;"/><line style="stroke:#000000;stroke-width:1.5;" x1="2743.5" x2="2827.5" y1="629.6825" y2="629.6825"/><text fill="#000000" font-family="sans-serif" font-size="14" font-weight="bold" lengthAdjust="spacing" textLength="71" x="2747.5" y="622.2645">repository</text></g><!--cluster services--><g id="cluster_services"><path d="M285,43.4063 L343,43.4063 A3.75,3.75 0 0 1 345.5,45.9063 L352.5,65.8125 L4422,65.8125 A2.5,2.5 0 0 1 4424.5,68.3125 L4424.5,511.7763 A2.5,2.5 0 0 1 4422,514.2763 L285,514.2763 A2.5,2.5 0 0 1 282.5,511.7763 L282.5,45.9063 A2.5,2.5 0 0 1 285,43.4063 " fill="none" style="stroke:#000000;stroke-width:1.5;"/><line style="stroke:#000000;stroke-width:1.5;" x1="282.5" x2="352.5" y1="65.8125" y2="65.8125"/><text fill="#000000" font-family="sans-serif" font-size="14" font-weight="bold" lengthAdjust="spacing" textLength="57" x="286.5" y="58.3945">services</text></g><!--cluster borrows--><g id="cluster_borrows"><path d="M3863,86.4063 L3920,86.4063 A3.75,3.75 0 0 1 3922.5,88.9063 L3929.5,108.8125 L4398,108.8125 A2.5,2.5 0 0 1 4400.5,111.3125 L4400.5,487.7763 A2.5,2.5 0 0 1 4398,490.2763 L3863,490.2763 A2.5,2.5 0 0 1 3860.5,487.7763 L3860.5,88.9063 A2.5,2.5 0 0 1 3863,86.4063 " fill="none" style="stroke:#000000;stroke-width:1.5;"/><line style="stroke:#000000;stroke-width:1.5;" x1="3860.5" x2="3929.5" y1="108.8125" y2="108.8125"/><text fill="#000000" font-family="sans-serif" font-size="14" font-weight="bold" lengthAdjust="spacing" textLength="56" x="3864.5" y="101.3945">borrows</text></g><!--cluster searchers--><g id="cluster_searchers"><path d="M309,94.6063 L378,94.6063 A3.75,3.75 0 0 1 380.5,97.1063 L387.5,117.0125 L3834,117.0125 A2.5,2.5 0 0 1 3836.5,119.5125 L3836.5,223.9262 A2.5,2.5 0 0 1 3834,226.4262 L309,226.4262 A2.5,2.5 0 0 1 306.5,223.9262 L306.5,97.1063 A2.5,2.5 0 0 1 309,94.6063 " fill="none" style="stroke:#000000;stroke-width:1.5;"/><line style="stroke:#000000;stroke-width:1.5;" x1="306.5" x2="387.5" y1="117.0125" y2="117.0125"/><text fill="#000000" font-family="sans-serif" font-size="14" font-weight="bold" lengthAdjust="spacing" textLength="68" x="310.5" y="109.5945">searchers</text></g><!--class BookRepository--><g id="elem_BookRepository"><rect codeLine="2" fill="#F1F1F1" height="212.0625" id="BookRepository" rx="2.5" ry="2.5" style="stroke:#181818;stroke-width:0.5;" width="621" x="2760" y="658.6863"/><ellipse cx="3015.25" cy="674.6863" fill="#ADD1B2" rx="11" ry="11" style="stroke:#181818;stroke-width:1.0;"/><path d="M3015.2969,680.8894 C3016.7969,680.8894 3018.0313,680.3269 3018.9375,679.2644 L3017.5625,677.7488 C3017.0156,678.3425 3016.3594,678.7331 3015.5625,678.7331 C3013.8906,678.7331 3012.7344,677.405 3012.7344,675.1238 C3012.7344,672.905 3013.8906,671.5613 3015.4531,671.5613 C3016.2656,671.5613 3016.8594,671.8738 3017.3906,672.3581 L3018.7656,670.8113 C3018.0156,670.0769 3016.8594,669.405 3015.4531,669.405 C3012.5,669.405 3010.1719,671.5456 3010.1719,675.2175 C3010.1719,678.9363 3012.5469,680.8894 3015.2969,680.8894 Z " fill="#000000"/><text fill="#000000" font-family="sans-serif" font-size="14" lengthAdjust="spacing" textLength="102" x="3035.75" y="679.4714">BookRepository</text><line style="stroke:#181818;stroke-width:0.5;" x1="2761" x2="3380" y1="690.6863" y2="690.6863"/><rect fill="none" height="6" style="stroke:#C82930;stroke-width:1.0;" width="6" x="2768" y="701.3894"/><text fill="#000000" font-family="sans-serif" font-size="14" lengthAdjust="spacing" textLength="156" x="2780" y="707.6745">connectionString: string</text><line style="stroke:#181818;stroke-width:0.5;" x1="2761" x2="3380" y1="715.0925" y2="715.0925"/><ellipse cx="2771" cy="728.7956" fill="#84BE84" rx="3" ry="3" style="stroke:#038048;stroke-width:1.0;"/><text fill="#000000" font-family="sans-serif" font-size="14" lengthAdjust="spacing" textLength="191" x="2780" y="732.0808">Delete(long isbn): Task&lt;bool&gt;</text><ellipse cx="2771" cy="745.2019" fill="#84BE84" rx="3" ry="3" style="stroke:#038048;stroke-width:1.0;"/><text fill="#000000" font-family="sans-serif" font-size="14" lengthAdjust="spacing" textLength="231" x="2780" y="748.487">GetAll(): Task&lt;IEnumerable&lt;Book&gt;&gt;</text><ellipse cx="2771" cy="761.6081" fill="#84BE84" rx="3" ry="3" style="stroke:#038048;stroke-width:1.0;"/><text fill="#000000" font-family="sans-serif" font-size="14" lengthAdjust="spacing" textLength="262" x="2780" y="764.8933">GetBookByISBN(long isbn): Task&lt;Book?&gt;</text><ellipse cx="2771" cy="778.0144" fill="#84BE84" rx="3" ry="3" style="stroke:#038048;stroke-width:1.0;"/><text fill="#000000" font-family="sans-serif" font-size="14" lengthAdjust="spacing" textLength="595" x="2780" y="781.2995">GetBooksByAuthor(string author, int pageNumber, int pageSize): Task&lt;IEnumerable&lt;Book&gt;&gt;</text><ellipse cx="2771" cy="794.4206" fill="#84BE84" rx="3" ry="3" style="stroke:#038048;stroke-width:1.0;"/><text fill="#000000" font-family="sans-serif" font-size="14" lengthAdjust="spacing" textLength="583" x="2780" y="797.7058">GetBooksByGenre(string genre, int pageNumber, int pageSize): Task&lt;IEnumerable&lt;Book&gt;&gt;</text><ellipse cx="2771" cy="810.8269" fill="#84BE84" rx="3" ry="3" style="stroke:#038048;stroke-width:1.0;"/><text fill="#000000" font-family="sans-serif" font-size="14" lengthAdjust="spacing" textLength="564" x="2780" y="814.112">GetBooksByTitle(string title, int pageNumber, int pageSize): Task&lt;IEnumerable&lt;Book&gt;&gt;</text><ellipse cx="2771" cy="827.2331" fill="#84BE84" rx="3" ry="3" style="stroke:#038048;stroke-width:1.0;"/><text fill="#000000" font-family="sans-serif" font-size="14" lengthAdjust="spacing" textLength="196" x="2780" y="830.5183">GetById(Guid id): Task&lt;Book?&gt;</text><ellipse cx="2771" cy="843.6394" fill="#84BE84" rx="3" ry="3" style="stroke:#038048;stroke-width:1.0;"/><text fill="#000000" font-family="sans-serif" font-size="14" lengthAdjust="spacing" textLength="197" x="2780" y="846.9245">Save(Book entity): Task&lt;bool&gt;</text><ellipse cx="2771" cy="860.0456" fill="#84BE84" rx="3" ry="3" style="stroke:#038048;stroke-width:1.0;"/><text fill="#000000" font-family="sans-serif" font-size="14" lengthAdjust="spacing" textLength="212" x="2780" y="863.3308">Update(Book entity): Task&lt;bool&gt;</text></g><!--class BorrowRepository--><g id="elem_BorrowRepository"><rect codeLine="15" fill="#F1F1F1" height="244.875" id="BorrowRepository" rx="2.5" ry="2.5" style="stroke:#181818;stroke-width:0.5;" width="770" x="4123.5" y="642.2763"/><ellipse cx="4446.25" cy="658.2763" fill="#ADD1B2" rx="11" ry="11" style="stroke:#181818;stroke-width:1.0;"/><path d="M4446.2969,664.4794 C4447.7969,664.4794 4449.0313,663.9169 4449.9375,662.8544 L4448.5625,661.3388 C4448.0156,661.9325 4447.3594,662.3231 4446.5625,662.3231 C4444.8906,662.3231 4443.7344,660.995 4443.7344,658.7138 C4443.7344,656.495 4444.8906,655.1513 4446.4531,655.1513 C4447.2656,655.1513 4447.8594,655.4638 4448.3906,655.9481 L4449.7656,654.4013 C4449.0156,653.6669 4447.8594,652.995 4446.4531,652.995 C4443.5,652.995 4441.1719,655.1356 4441.1719,658.8075 C4441.1719,662.5263 4443.5469,664.4794 4446.2969,664.4794 Z " fill="#000000"/><text fill="#000000" font-family="sans-serif" font-size="14" lengthAdjust="spacing" textLength="116" x="4466.75" y="663.0614">BorrowRepository</text><line style="stroke:#181818;stroke-width:0.5;" x1="4124.5" x2="4892.5" y1="674.2763" y2="674.2763"/><rect fill="none" height="6" style="stroke:#C82930;stroke-width:1.0;" width="6" x="4131.5" y="684.9794"/><text fill="#000000" font-family="sans-serif" font-size="14" lengthAdjust="spacing" textLength="156" x="4143.5" y="691.2645">connectionString: string</text><line style="stroke:#181818;stroke-width:0.5;" x1="4124.5" x2="4892.5" y1="698.6825" y2="698.6825"/><ellipse cx="4134.5" cy="712.3856" fill="#84BE84" rx="3" ry="3" style="stroke:#038048;stroke-width:1.0;"/><text fill="#000000" font-family="sans-serif" font-size="14" lengthAdjust="spacing" textLength="175" x="4143.5" y="715.6708">Delete(long id): Task&lt;bool&gt;</text><ellipse cx="4134.5" cy="728.7919" fill="#84BE84" rx="3" ry="3" style="stroke:#038048;stroke-width:1.0;"/><text fill="#000000" font-family="sans-serif" font-size="14" lengthAdjust="spacing" textLength="245" x="4143.5" y="732.077">GetAll(): Task&lt;IEnumerable&lt;Borrow&gt;&gt;</text><ellipse cx="4134.5" cy="745.1981" fill="#84BE84" rx="3" ry="3" style="stroke:#038048;stroke-width:1.0;"/><text fill="#000000" font-family="sans-serif" font-size="14" lengthAdjust="spacing" textLength="600" x="4143.5" y="748.4833">GetBorrowsByBook(Guid bookId, int pageNumber, int pageSize): Task&lt;IEnumerable&lt;Borrow&gt;&gt;</text><ellipse cx="4134.5" cy="761.6044" fill="#84BE84" rx="3" ry="3" style="stroke:#038048;stroke-width:1.0;"/><text fill="#000000" font-family="sans-serif" font-size="14" lengthAdjust="spacing" textLength="716" x="4143.5" y="764.8895">GetBorrowsByBorrowDate(DateTime borrowDate, int pageNumber, int pageSize): Task&lt;IEnumerable&lt;Borrow&gt;&gt;</text><ellipse cx="4134.5" cy="778.0106" fill="#84BE84" rx="3" ry="3" style="stroke:#038048;stroke-width:1.0;"/><text fill="#000000" font-family="sans-serif" font-size="14" lengthAdjust="spacing" textLength="674" x="4143.5" y="781.2958">GetBorrowsByDueDate(DateTime dueDate, int pageNumber, int pageSize): Task&lt;IEnumerable&lt;Borrow&gt;&gt;</text><ellipse cx="4134.5" cy="794.4169" fill="#84BE84" rx="3" ry="3" style="stroke:#038048;stroke-width:1.0;"/><text fill="#000000" font-family="sans-serif" font-size="14" lengthAdjust="spacing" textLength="744" x="4143.5" y="797.702">GetBorrowsByPatron(long patronMembershipNumber, int pageNumber, int pageSize): Task&lt;IEnumerable&lt;Borrow&gt;&gt;</text><ellipse cx="4134.5" cy="810.8231" fill="#84BE84" rx="3" ry="3" style="stroke:#038048;stroke-width:1.0;"/><text fill="#000000" font-family="sans-serif" font-size="14" lengthAdjust="spacing" textLength="678" x="4143.5" y="814.1083">GetBorrowsByStatus(BorrowStatus status, int pageNumber, int pageSize): Task&lt;IEnumerable&lt;Borrow&gt;&gt;</text><ellipse cx="4134.5" cy="827.2294" fill="#84BE84" rx="3" ry="3" style="stroke:#038048;stroke-width:1.0;"/><text fill="#000000" font-family="sans-serif" font-size="14" lengthAdjust="spacing" textLength="210" x="4143.5" y="830.5145">GetById(Guid id): Task&lt;Borrow?&gt;</text><ellipse cx="4134.5" cy="843.6356" fill="#84BE84" rx="3" ry="3" style="stroke:#038048;stroke-width:1.0;"/><text fill="#000000" font-family="sans-serif" font-size="14" lengthAdjust="spacing" textLength="211" x="4143.5" y="846.9208">Save(Borrow entity): Task&lt;bool&gt;</text><ellipse cx="4134.5" cy="860.0419" fill="#84BE84" rx="3" ry="3" style="stroke:#038048;stroke-width:1.0;"/><text fill="#000000" font-family="sans-serif" font-size="14" lengthAdjust="spacing" textLength="226" x="4143.5" y="863.327">Update(Borrow entity): Task&lt;bool&gt;</text><ellipse cx="4134.5" cy="876.4481" fill="#84BE84" rx="3" ry="3" style="stroke:#038048;stroke-width:1.0;"/><text fill="#000000" font-family="sans-serif" font-size="14" lengthAdjust="spacing" textLength="489" x="4143.5" y="879.7333">UpdateBorrowStatus(Guid borrowId, BorrowStatus newStatus): Task&lt;bool&gt;</text></g><!--class PatronRepository--><g id="elem_PatronRepository"><rect codeLine="30" fill="#F1F1F1" height="195.6563" id="PatronRepository" rx="2.5" ry="2.5" style="stroke:#181818;stroke-width:0.5;" width="673" x="3416" y="666.8863"/><ellipse cx="3691.25" cy="682.8863" fill="#ADD1B2" rx="11" ry="11" style="stroke:#181818;stroke-width:1.0;"/><path d="M3691.2969,689.0894 C3692.7969,689.0894 3694.0313,688.5269 3694.9375,687.4644 L3693.5625,685.9488 C3693.0156,686.5425 3692.3594,686.9331 3691.5625,686.9331 C3689.8906,686.9331 3688.7344,685.605 3688.7344,683.3238 C3688.7344,681.105 3689.8906,679.7613 3691.4531,679.7613 C3692.2656,679.7613 3692.8594,680.0738 3693.3906,680.5581 L3694.7656,679.0113 C3694.0156,678.2769 3692.8594,677.605 3691.4531,677.605 C3688.5,677.605 3686.1719,679.7456 3686.1719,683.4175 C3686.1719,687.1363 3688.5469,689.0894 3691.2969,689.0894 Z " fill="#000000"/><text fill="#000000" font-family="sans-serif" font-size="14" lengthAdjust="spacing" textLength="114" x="3711.75" y="687.6714">PatronRepository</text><line style="stroke:#181818;stroke-width:0.5;" x1="3417" x2="4088" y1="698.8863" y2="698.8863"/><rect fill="none" height="6" style="stroke:#C82930;stroke-width:1.0;" width="6" x="3424" y="709.5894"/><text fill="#000000" font-family="sans-serif" font-size="14" lengthAdjust="spacing" textLength="156" x="3436" y="715.8745">connectionString: string</text><line style="stroke:#181818;stroke-width:0.5;" x1="3417" x2="4088" y1="723.2925" y2="723.2925"/><ellipse cx="3427" cy="736.9956" fill="#84BE84" rx="3" ry="3" style="stroke:#038048;stroke-width:1.0;"/><text fill="#000000" font-family="sans-serif" font-size="14" lengthAdjust="spacing" textLength="296" x="3436" y="740.2808">Delete(long membershipnumber): Task&lt;bool&gt;</text><ellipse cx="3427" cy="753.4019" fill="#84BE84" rx="3" ry="3" style="stroke:#038048;stroke-width:1.0;"/><text fill="#000000" font-family="sans-serif" font-size="14" lengthAdjust="spacing" textLength="243" x="3436" y="756.687">GetAll(): Task&lt;IEnumerable&lt;Patron&gt;&gt;</text><ellipse cx="3427" cy="769.8081" fill="#84BE84" rx="3" ry="3" style="stroke:#038048;stroke-width:1.0;"/><text fill="#000000" font-family="sans-serif" font-size="14" lengthAdjust="spacing" textLength="208" x="3436" y="773.0933">GetById(Guid id): Task&lt;Patron?&gt;</text><ellipse cx="3427" cy="786.2144" fill="#84BE84" rx="3" ry="3" style="stroke:#038048;stroke-width:1.0;"/><text fill="#000000" font-family="sans-serif" font-size="14" lengthAdjust="spacing" textLength="483" x="3436" y="789.4995">GetPatronByMembershipAsync(long membershipNumber): Task&lt;Patron?&gt;</text><ellipse cx="3427" cy="802.6206" fill="#84BE84" rx="3" ry="3" style="stroke:#038048;stroke-width:1.0;"/><text fill="#000000" font-family="sans-serif" font-size="14" lengthAdjust="spacing" textLength="464" x="3436" y="805.9058">GetPatronByContactDetailsAsync(long contactDetails): Task&lt;Patron?&gt;</text><ellipse cx="3427" cy="819.0269" fill="#84BE84" rx="3" ry="3" style="stroke:#038048;stroke-width:1.0;"/><text fill="#000000" font-family="sans-serif" font-size="14" lengthAdjust="spacing" textLength="647" x="3436" y="822.312">GetPatronsByNameAsync(string name, int pageNumber, int pageSize): Task&lt;IEnumerable&lt;Patron&gt;&gt;</text><ellipse cx="3427" cy="835.4331" fill="#84BE84" rx="3" ry="3" style="stroke:#038048;stroke-width:1.0;"/><text fill="#000000" font-family="sans-serif" font-size="14" lengthAdjust="spacing" textLength="209" x="3436" y="838.7183">Save(Patron entity): Task&lt;bool&gt;</text><ellipse cx="3427" cy="851.8394" fill="#84BE84" rx="3" ry="3" style="stroke:#038048;stroke-width:1.0;"/><text fill="#000000" font-family="sans-serif" font-size="14" lengthAdjust="spacing" textLength="224" x="3436" y="855.1245">Update(Patron entity): Task&lt;bool&gt;</text></g><!--class BorrowService--><g id="elem_BorrowService"><rect codeLine="4" fill="#F1F1F1" height="195.6563" id="BorrowService" rx="2.5" ry="2.5" style="stroke:#181818;stroke-width:0.5;" width="508" x="3876.5" y="278.6263"/><ellipse cx="4079.25" cy="294.6263" fill="#ADD1B2" rx="11" ry="11" style="stroke:#181818;stroke-width:1.0;"/><path d="M4079.2969,300.8294 C4080.7969,300.8294 4082.0313,300.2669 4082.9375,299.2044 L4081.5625,297.6888 C4081.0156,298.2825 4080.3594,298.6731 4079.5625,298.6731 C4077.8906,298.6731 4076.7344,297.345 4076.7344,295.0638 C4076.7344,292.845 4077.8906,291.5013 4079.4531,291.5013 C4080.2656,291.5013 4080.8594,291.8138 4081.3906,292.2981 L4082.7656,290.7513 C4082.0156,290.0169 4080.8594,289.345 4079.4531,289.345 C4076.5,289.345 4074.1719,291.4856 4074.1719,295.1575 C4074.1719,298.8763 4076.5469,300.8294 4079.2969,300.8294 Z " fill="#000000"/><text fill="#000000" font-family="sans-serif" font-size="14" lengthAdjust="spacing" textLength="94" x="4099.75" y="299.4114">BorrowService</text><line style="stroke:#181818;stroke-width:0.5;" x1="3877.5" x2="4383.5" y1="310.6263" y2="310.6263"/><rect fill="none" height="6" style="stroke:#C82930;stroke-width:1.0;" width="6" x="3884.5" y="321.3294"/><text fill="#000000" font-family="sans-serif" font-size="14" lengthAdjust="spacing" textLength="240" x="3896.5" y="327.6145">borrowRepository: IBorrowRepository</text><rect fill="none" height="6" style="stroke:#C82930;stroke-width:1.0;" width="6" x="3884.5" y="337.7356"/><text fill="#000000" font-family="sans-serif" font-size="14" lengthAdjust="spacing" textLength="212" x="3896.5" y="344.0208">bookRepository: IBookRepository</text><rect fill="none" height="6" style="stroke:#C82930;stroke-width:1.0;" width="6" x="3884.5" y="354.1419"/><text fill="#000000" font-family="sans-serif" font-size="14" lengthAdjust="spacing" textLength="236" x="3896.5" y="360.427">patronRepository: IPatronRepository</text><line style="stroke:#181818;stroke-width:0.5;" x1="3877.5" x2="4383.5" y1="367.845" y2="367.845"/><ellipse cx="3887.5" cy="381.5481" fill="#84BE84" rx="3" ry="3" style="stroke:#038048;stroke-width:1.0;"/><text fill="#000000" font-family="sans-serif" font-size="14" lengthAdjust="spacing" textLength="262" x="3896.5" y="384.8333">GetBookIdByISBN(long isbn): Task&lt;Guid&gt;</text><ellipse cx="3887.5" cy="397.9544" fill="#84BE84" rx="3" ry="3" style="stroke:#038048;stroke-width:1.0;"/><text fill="#000000" font-family="sans-serif" font-size="14" lengthAdjust="spacing" textLength="482" x="3896.5" y="401.2395">GetPatronIdByMembershipNumber(long membershipNumber): Task&lt;Guid&gt;</text><ellipse cx="3887.5" cy="414.3606" fill="#84BE84" rx="3" ry="3" style="stroke:#038048;stroke-width:1.0;"/><text fill="#000000" font-family="sans-serif" font-size="14" lengthAdjust="spacing" textLength="442" x="3896.5" y="417.6458">RegisterNewBorrow(Guid patronUUID, Guid bookUUID): Task&lt;Borrow&gt;</text><rect fill="#F24D5C" height="6" style="stroke:#C82930;stroke-width:1.0;" width="6" x="3884.5" y="427.7669"/><text fill="#000000" font-family="sans-serif" font-size="14" lengthAdjust="spacing" textLength="286" x="3896.5" y="434.052">EnsureBookIsAvailable(Guid bookUUID): Task</text><rect fill="#F24D5C" height="6" style="stroke:#C82930;stroke-width:1.0;" width="6" x="3884.5" y="444.1731"/><text fill="#000000" font-family="sans-serif" font-size="14" lengthAdjust="spacing" textLength="354" x="3896.5" y="450.4583">CreateBorrow(Guid patronUUID, Guid bookUUID): Borrow</text><rect fill="#F24D5C" height="6" style="stroke:#C82930;stroke-width:1.0;" width="6" x="3884.5" y="460.5794"/><text fill="#000000" font-family="sans-serif" font-size="14" lengthAdjust="spacing" textLength="221" x="3896.5" y="466.8645">SaveBorrow(Borrow borrow): Task</text></g><!--class IBorrowService--><g id="elem_IBorrowService"><rect codeLine="16" fill="#F1F1F1" height="97.2188" id="IBorrowService" rx="2.5" ry="2.5" style="stroke:#181818;stroke-width:0.5;" width="494" x="3883.5" y="121.4063"/><ellipse cx="4080.25" cy="137.4063" fill="#B4A7E5" rx="11" ry="11" style="stroke:#181818;stroke-width:1.0;"/><path d="M4076.5156,143.4063 L4084.1875,143.4063 L4084.1875,141.2969 L4081.6094,141.2969 L4081.6094,134.4375 L4084.1875,134.4375 L4084.1875,132.3281 L4076.5156,132.3281 L4076.5156,134.4375 L4079.0938,134.4375 L4079.0938,141.2969 L4076.5156,141.2969 L4076.5156,143.4063 Z " fill="#000000"/><text fill="#000000" font-family="sans-serif" font-size="14" font-style="italic" lengthAdjust="spacing" textLength="92" x="4100.75" y="142.1914">IBorrowService</text><line style="stroke:#181818;stroke-width:0.5;" x1="3884.5" x2="4376.5" y1="153.4063" y2="153.4063"/><line style="stroke:#181818;stroke-width:0.5;" x1="3884.5" x2="4376.5" y1="161.4063" y2="161.4063"/><text fill="#000000" font-family="sans-serif" font-size="14" lengthAdjust="spacing" textLength="442" x="3889.5" y="178.3945">RegisterNewBorrow(Guid patronUUID, Guid bookUUID): Task&lt;Borrow&gt;</text><text fill="#000000" font-family="sans-serif" font-size="14" lengthAdjust="spacing" textLength="262" x="3889.5" y="194.8008">GetBookIdByISBN(long isbn): Task&lt;Guid&gt;</text><text fill="#000000" font-family="sans-serif" font-size="14" lengthAdjust="spacing" textLength="482" x="3889.5" y="211.207">GetPatronIdByMembershipNumber(long membershipNumber): Task&lt;Guid&gt;</text></g><!--class SearcherByAuthor--><g id="elem_SearcherByAuthor"><rect codeLine="25" fill="#F1F1F1" height="80.8125" id="SearcherByAuthor" rx="2.5" ry="2.5" style="stroke:#181818;stroke-width:0.5;" width="540" x="322.5" y="129.6063"/><ellipse cx="528.75" cy="145.6063" fill="#ADD1B2" rx="11" ry="11" style="stroke:#181818;stroke-width:1.0;"/><path d="M528.7969,151.8094 C530.2969,151.8094 531.5313,151.2469 532.4375,150.1844 L531.0625,148.6688 C530.5156,149.2625 529.8594,149.6531 529.0625,149.6531 C527.3906,149.6531 526.2344,148.325 526.2344,146.0438 C526.2344,143.825 527.3906,142.4813 528.9531,142.4813 C529.7656,142.4813 530.3594,142.7938 530.8906,143.2781 L532.2656,141.7313 C531.5156,140.9969 530.3594,140.325 528.9531,140.325 C526,140.325 523.6719,142.4656 523.6719,146.1375 C523.6719,149.8563 526.0469,151.8094 528.7969,151.8094 Z " fill="#000000"/><text fill="#000000" font-family="sans-serif" font-size="14" lengthAdjust="spacing" textLength="119" x="549.25" y="150.3914">SearcherByAuthor</text><line style="stroke:#181818;stroke-width:0.5;" x1="323.5" x2="861.5" y1="161.6063" y2="161.6063"/><rect fill="none" height="6" style="stroke:#C82930;stroke-width:1.0;" width="6" x="330.5" y="172.3094"/><text fill="#000000" font-family="sans-serif" font-size="14" lengthAdjust="spacing" textLength="212" x="342.5" y="178.5945">bookRepository: IBookRepository</text><line style="stroke:#181818;stroke-width:0.5;" x1="323.5" x2="861.5" y1="186.0125" y2="186.0125"/><ellipse cx="333.5" cy="199.7156" fill="#84BE84" rx="3" ry="3" style="stroke:#038048;stroke-width:1.0;"/><text fill="#000000" font-family="sans-serif" font-size="14" lengthAdjust="spacing" textLength="514" x="342.5" y="203.0008">SearchByPage(string criteria, int pageNumber, int pageSize): Task&lt;List&lt;Book&gt;&gt;</text></g><!--class SearcherByGenre--><g id="elem_SearcherByGenre"><rect codeLine="30" fill="#F1F1F1" height="80.8125" id="SearcherByGenre" rx="2.5" ry="2.5" style="stroke:#181818;stroke-width:0.5;" width="540" x="897.5" y="129.6063"/><ellipse cx="1106.75" cy="145.6063" fill="#ADD1B2" rx="11" ry="11" style="stroke:#181818;stroke-width:1.0;"/><path d="M1106.7969,151.8094 C1108.2969,151.8094 1109.5313,151.2469 1110.4375,150.1844 L1109.0625,148.6688 C1108.5156,149.2625 1107.8594,149.6531 1107.0625,149.6531 C1105.3906,149.6531 1104.2344,148.325 1104.2344,146.0438 C1104.2344,143.825 1105.3906,142.4813 1106.9531,142.4813 C1107.7656,142.4813 1108.3594,142.7938 1108.8906,143.2781 L1110.2656,141.7313 C1109.5156,140.9969 1108.3594,140.325 1106.9531,140.325 C1104,140.325 1101.6719,142.4656 1101.6719,146.1375 C1101.6719,149.8563 1104.0469,151.8094 1106.7969,151.8094 Z " fill="#000000"/><text fill="#000000" font-family="sans-serif" font-size="14" lengthAdjust="spacing" textLength="113" x="1127.25" y="150.3914">SearcherByGenre</text><line style="stroke:#181818;stroke-width:0.5;" x1="898.5" x2="1436.5" y1="161.6063" y2="161.6063"/><rect fill="none" height="6" style="stroke:#C82930;stroke-width:1.0;" width="6" x="905.5" y="172.3094"/><text fill="#000000" font-family="sans-serif" font-size="14" lengthAdjust="spacing" textLength="212" x="917.5" y="178.5945">bookRepository: IBookRepository</text><line style="stroke:#181818;stroke-width:0.5;" x1="898.5" x2="1436.5" y1="186.0125" y2="186.0125"/><ellipse cx="908.5" cy="199.7156" fill="#84BE84" rx="3" ry="3" style="stroke:#038048;stroke-width:1.0;"/><text fill="#000000" font-family="sans-serif" font-size="14" lengthAdjust="spacing" textLength="514" x="917.5" y="203.0008">SearchByPage(string criteria, int pageNumber, int pageSize): Task&lt;List&lt;Book&gt;&gt;</text></g><!--class SearcherByTitle--><g id="elem_SearcherByTitle"><rect codeLine="35" fill="#F1F1F1" height="80.8125" id="SearcherByTitle" rx="2.5" ry="2.5" style="stroke:#181818;stroke-width:0.5;" width="540" x="1472.5" y="129.6063"/><ellipse cx="1685.75" cy="145.6063" fill="#ADD1B2" rx="11" ry="11" style="stroke:#181818;stroke-width:1.0;"/><path d="M1685.7969,151.8094 C1687.2969,151.8094 1688.5313,151.2469 1689.4375,150.1844 L1688.0625,148.6688 C1687.5156,149.2625 1686.8594,149.6531 1686.0625,149.6531 C1684.3906,149.6531 1683.2344,148.325 1683.2344,146.0438 C1683.2344,143.825 1684.3906,142.4813 1685.9531,142.4813 C1686.7656,142.4813 1687.3594,142.7938 1687.8906,143.2781 L1689.2656,141.7313 C1688.5156,140.9969 1687.3594,140.325 1685.9531,140.325 C1683,140.325 1680.6719,142.4656 1680.6719,146.1375 C1680.6719,149.8563 1683.0469,151.8094 1685.7969,151.8094 Z " fill="#000000"/><text fill="#000000" font-family="sans-serif" font-size="14" lengthAdjust="spacing" textLength="105" x="1706.25" y="150.3914">SearcherByTitle</text><line style="stroke:#181818;stroke-width:0.5;" x1="1473.5" x2="2011.5" y1="161.6063" y2="161.6063"/><rect fill="none" height="6" style="stroke:#C82930;stroke-width:1.0;" width="6" x="1480.5" y="172.3094"/><text fill="#000000" font-family="sans-serif" font-size="14" lengthAdjust="spacing" textLength="212" x="1492.5" y="178.5945">bookRepository: IBookRepository</text><line style="stroke:#181818;stroke-width:0.5;" x1="1473.5" x2="2011.5" y1="186.0125" y2="186.0125"/><ellipse cx="1483.5" cy="199.7156" fill="#84BE84" rx="3" ry="3" style="stroke:#038048;stroke-width:1.0;"/><text fill="#000000" font-family="sans-serif" font-size="14" lengthAdjust="spacing" textLength="514" x="1492.5" y="203.0008">SearchByPage(string criteria, int pageNumber, int pageSize): Task&lt;List&lt;Book&gt;&gt;</text></g><!--class LoanSearcherByState--><g id="elem_LoanSearcherByState"><rect codeLine="40" fill="#F1F1F1" height="80.8125" id="LoanSearcherByState" rx="2.5" ry="2.5" style="stroke:#181818;stroke-width:0.5;" width="607" x="2635" y="129.6063"/><ellipse cx="2862.75" cy="145.6063" fill="#ADD1B2" rx="11" ry="11" style="stroke:#181818;stroke-width:1.0;"/><path d="M2862.7969,151.8094 C2864.2969,151.8094 2865.5313,151.2469 2866.4375,150.1844 L2865.0625,148.6688 C2864.5156,149.2625 2863.8594,149.6531 2863.0625,149.6531 C2861.3906,149.6531 2860.2344,148.325 2860.2344,146.0438 C2860.2344,143.825 2861.3906,142.4813 2862.9531,142.4813 C2863.7656,142.4813 2864.3594,142.7938 2864.8906,143.2781 L2866.2656,141.7313 C2865.5156,140.9969 2864.3594,140.325 2862.9531,140.325 C2860,140.325 2857.6719,142.4656 2857.6719,146.1375 C2857.6719,149.8563 2860.0469,151.8094 2862.7969,151.8094 Z " fill="#000000"/><text fill="#000000" font-family="sans-serif" font-size="14" lengthAdjust="spacing" textLength="143" x="2883.25" y="150.3914">LoanSearcherByState</text><line style="stroke:#181818;stroke-width:0.5;" x1="2636" x2="3241" y1="161.6063" y2="161.6063"/><rect fill="none" height="6" style="stroke:#C82930;stroke-width:1.0;" width="6" x="2643" y="172.3094"/><text fill="#000000" font-family="sans-serif" font-size="14" lengthAdjust="spacing" textLength="191" x="2655" y="178.5945">repository: IBorrowRepository</text><line style="stroke:#181818;stroke-width:0.5;" x1="2636" x2="3241" y1="186.0125" y2="186.0125"/><ellipse cx="2646" cy="199.7156" fill="#84BE84" rx="3" ry="3" style="stroke:#038048;stroke-width:1.0;"/><text fill="#000000" font-family="sans-serif" font-size="14" lengthAdjust="spacing" textLength="581" x="2655" y="203.0008">SearchByPage(BorrowStatus criteria, int pageNumber, int pageSize): Task&lt;List&lt;Borrow&gt;&gt;</text></g><!--class SearcherForLoansbyPatron--><g id="elem_SearcherForLoansbyPatron"><rect codeLine="45" fill="#F1F1F1" height="80.8125" id="SearcherForLoansbyPatron" rx="2.5" ry="2.5" style="stroke:#181818;stroke-width:0.5;" width="543" x="3277" y="129.6063"/><ellipse cx="3455.75" cy="145.6063" fill="#ADD1B2" rx="11" ry="11" style="stroke:#181818;stroke-width:1.0;"/><path d="M3455.7969,151.8094 C3457.2969,151.8094 3458.5313,151.2469 3459.4375,150.1844 L3458.0625,148.6688 C3457.5156,149.2625 3456.8594,149.6531 3456.0625,149.6531 C3454.3906,149.6531 3453.2344,148.325 3453.2344,146.0438 C3453.2344,143.825 3454.3906,142.4813 3455.9531,142.4813 C3456.7656,142.4813 3457.3594,142.7938 3457.8906,143.2781 L3459.2656,141.7313 C3458.5156,140.9969 3457.3594,140.325 3455.9531,140.325 C3453,140.325 3450.6719,142.4656 3450.6719,146.1375 C3450.6719,149.8563 3453.0469,151.8094 3455.7969,151.8094 Z " fill="#000000"/><text fill="#000000" font-family="sans-serif" font-size="14" lengthAdjust="spacing" textLength="177" x="3476.25" y="150.3914">SearcherForLoansbyPatron</text><line style="stroke:#181818;stroke-width:0.5;" x1="3278" x2="3819" y1="161.6063" y2="161.6063"/><rect fill="none" height="6" style="stroke:#C82930;stroke-width:1.0;" width="6" x="3285" y="172.3094"/><text fill="#000000" font-family="sans-serif" font-size="14" lengthAdjust="spacing" textLength="191" x="3297" y="178.5945">repository: IBorrowRepository</text><line style="stroke:#181818;stroke-width:0.5;" x1="3278" x2="3819" y1="186.0125" y2="186.0125"/><ellipse cx="3288" cy="199.7156" fill="#84BE84" rx="3" ry="3" style="stroke:#038048;stroke-width:1.0;"/><text fill="#000000" font-family="sans-serif" font-size="14" lengthAdjust="spacing" textLength="517" x="3297" y="203.0008">SearchByPage(long criteria, int pageNumber, int pageSize): Task&lt;List&lt;Borrow&gt;&gt;</text></g><!--class SearcherByName--><g id="elem_SearcherByName"><rect codeLine="50" fill="#F1F1F1" height="80.8125" id="SearcherByName" rx="2.5" ry="2.5" style="stroke:#181818;stroke-width:0.5;" width="552" x="2047.5" y="129.6063"/><ellipse cx="2262.75" cy="145.6063" fill="#ADD1B2" rx="11" ry="11" style="stroke:#181818;stroke-width:1.0;"/><path d="M2262.7969,151.8094 C2264.2969,151.8094 2265.5313,151.2469 2266.4375,150.1844 L2265.0625,148.6688 C2264.5156,149.2625 2263.8594,149.6531 2263.0625,149.6531 C2261.3906,149.6531 2260.2344,148.325 2260.2344,146.0438 C2260.2344,143.825 2261.3906,142.4813 2262.9531,142.4813 C2263.7656,142.4813 2264.3594,142.7938 2264.8906,143.2781 L2266.2656,141.7313 C2265.5156,140.9969 2264.3594,140.325 2262.9531,140.325 C2260,140.325 2257.6719,142.4656 2257.6719,146.1375 C2257.6719,149.8563 2260.0469,151.8094 2262.7969,151.8094 Z " fill="#000000"/><text fill="#000000" font-family="sans-serif" font-size="14" lengthAdjust="spacing" textLength="113" x="2283.25" y="150.3914">SearcherByName</text><line style="stroke:#181818;stroke-width:0.5;" x1="2048.5" x2="2598.5" y1="161.6063" y2="161.6063"/><rect fill="none" height="6" style="stroke:#C82930;stroke-width:1.0;" width="6" x="2055.5" y="172.3094"/><text fill="#000000" font-family="sans-serif" font-size="14" lengthAdjust="spacing" textLength="236" x="2067.5" y="178.5945">patronRepository: IPatronRepository</text><line style="stroke:#181818;stroke-width:0.5;" x1="2048.5" x2="2598.5" y1="186.0125" y2="186.0125"/><ellipse cx="2058.5" cy="199.7156" fill="#84BE84" rx="3" ry="3" style="stroke:#038048;stroke-width:1.0;"/><text fill="#000000" font-family="sans-serif" font-size="14" lengthAdjust="spacing" textLength="526" x="2067.5" y="203.0008">SearchByPage(string criteria, int pageNumber, int pageSize): Task&lt;List&lt;Patron&gt;&gt;</text></g><!--class IBookRepository--><g id="elem_IBookRepository"><rect fill="#F1F1F1" height="48" id="IBookRepository" rx="2.5" ry="2.5" style="stroke:#181818;stroke-width:0.5;" width="137" x="7" y="534.2763"/><ellipse cx="22" cy="550.2763" fill="#ADD1B2" rx="11" ry="11" style="stroke:#181818;stroke-width:1.0;"/><path d="M22.0469,556.4794 C23.5469,556.4794 24.7813,555.9169 25.6875,554.8544 L24.3125,553.3388 C23.7656,553.9325 23.1094,554.3231 22.3125,554.3231 C20.6406,554.3231 19.4844,552.995 19.4844,550.7138 C19.4844,548.495 20.6406,547.1513 22.2031,547.1513 C23.0156,547.1513 23.6094,547.4638 24.1406,547.9481 L25.5156,546.4013 C24.7656,545.6669 23.6094,544.995 22.2031,544.995 C19.25,544.995 16.9219,547.1356 16.9219,550.8075 C16.9219,554.5263 19.2969,556.4794 22.0469,556.4794 Z " fill="#000000"/><text fill="#000000" font-family="sans-serif" font-size="14" lengthAdjust="spacing" textLength="105" x="36" y="555.0614">IBookRepository</text><line style="stroke:#181818;stroke-width:0.5;" x1="8" x2="143" y1="566.2763" y2="566.2763"/><line style="stroke:#181818;stroke-width:0.5;" x1="8" x2="143" y1="574.2763" y2="574.2763"/></g><!--class IBorrowRepository--><g id="elem_IBorrowRepository"><rect fill="#F1F1F1" height="48" id="IBorrowRepository" rx="2.5" ry="2.5" style="stroke:#181818;stroke-width:0.5;" width="151" x="4433" y="534.2763"/><ellipse cx="4448" cy="550.2763" fill="#ADD1B2" rx="11" ry="11" style="stroke:#181818;stroke-width:1.0;"/><path d="M4448.0469,556.4794 C4449.5469,556.4794 4450.7813,555.9169 4451.6875,554.8544 L4450.3125,553.3388 C4449.7656,553.9325 4449.1094,554.3231 4448.3125,554.3231 C4446.6406,554.3231 4445.4844,552.995 4445.4844,550.7138 C4445.4844,548.495 4446.6406,547.1513 4448.2031,547.1513 C4449.0156,547.1513 4449.6094,547.4638 4450.1406,547.9481 L4451.5156,546.4013 C4450.7656,545.6669 4449.6094,544.995 4448.2031,544.995 C4445.25,544.995 4442.9219,547.1356 4442.9219,550.8075 C4442.9219,554.5263 4445.2969,556.4794 4448.0469,556.4794 Z " fill="#000000"/><text fill="#000000" font-family="sans-serif" font-size="14" lengthAdjust="spacing" textLength="119" x="4462" y="555.0614">IBorrowRepository</text><line style="stroke:#181818;stroke-width:0.5;" x1="4434" x2="4583" y1="566.2763" y2="566.2763"/><line style="stroke:#181818;stroke-width:0.5;" x1="4434" x2="4583" y1="574.2763" y2="574.2763"/></g><!--class IPatronRepository--><g id="elem_IPatronRepository"><rect fill="#F1F1F1" height="48" id="IPatronRepository" rx="2.5" ry="2.5" style="stroke:#181818;stroke-width:0.5;" width="149" x="4056" y="534.2763"/><ellipse cx="4071" cy="550.2763" fill="#ADD1B2" rx="11" ry="11" style="stroke:#181818;stroke-width:1.0;"/><path d="M4071.0469,556.4794 C4072.5469,556.4794 4073.7813,555.9169 4074.6875,554.8544 L4073.3125,553.3388 C4072.7656,553.9325 4072.1094,554.3231 4071.3125,554.3231 C4069.6406,554.3231 4068.4844,552.995 4068.4844,550.7138 C4068.4844,548.495 4069.6406,547.1513 4071.2031,547.1513 C4072.0156,547.1513 4072.6094,547.4638 4073.1406,547.9481 L4074.5156,546.4013 C4073.7656,545.6669 4072.6094,544.995 4071.2031,544.995 C4068.25,544.995 4065.9219,547.1356 4065.9219,550.8075 C4065.9219,554.5263 4068.2969,556.4794 4071.0469,556.4794 Z " fill="#000000"/><text fill="#000000" font-family="sans-serif" font-size="14" lengthAdjust="spacing" textLength="117" x="4085" y="555.0614">IPatronRepository</text><line style="stroke:#181818;stroke-width:0.5;" x1="4057" x2="4204" y1="566.2763" y2="566.2763"/><line style="stroke:#181818;stroke-width:0.5;" x1="4057" x2="4204" y1="574.2763" y2="574.2763"/></g><!--class ISearchStrategy--><g id="elem_ISearchStrategy"><rect fill="#F1F1F1" height="48" id="ISearchStrategy" rx="2.5" ry="2.5" style="stroke:#181818;stroke-width:0.5;" width="138" x="128.5" y="352.4562"/><ellipse cx="143.5" cy="368.4562" fill="#ADD1B2" rx="11" ry="11" style="stroke:#181818;stroke-width:1.0;"/><path d="M143.5469,374.6594 C145.0469,374.6594 146.2813,374.0969 147.1875,373.0344 L145.8125,371.5187 C145.2656,372.1125 144.6094,372.5031 143.8125,372.5031 C142.1406,372.5031 140.9844,371.175 140.9844,368.8937 C140.9844,366.675 142.1406,365.3312 143.7031,365.3312 C144.5156,365.3312 145.1094,365.6437 145.6406,366.1281 L147.0156,364.5812 C146.2656,363.8469 145.1094,363.175 143.7031,363.175 C140.75,363.175 138.4219,365.3156 138.4219,368.9875 C138.4219,372.7062 140.7969,374.6594 143.5469,374.6594 Z " fill="#000000"/><text fill="#000000" font-family="sans-serif" font-size="14" lengthAdjust="spacing" textLength="106" x="157.5" y="373.2414">ISearchStrategy</text><line style="stroke:#181818;stroke-width:0.5;" x1="129.5" x2="265.5" y1="384.4562" y2="384.4562"/><line style="stroke:#181818;stroke-width:0.5;" x1="129.5" x2="265.5" y1="392.4562" y2="392.4562"/></g><!--reverse link IBookRepository to BookRepository--><g id="link_IBookRepository_BookRepository"><path codeLine="42" d="M75.5,600.4163 C75.5,654.9862 75.5,765.1563 75.5,765.1563 C75.5,765.1563 1993.12,765.1563 2759.51,765.1563 " fill="none" id="IBookRepository-backto-BookRepository" style="stroke:#181818;stroke-width:1.0;stroke-dasharray:7.0,7.0;"/><polygon fill="none" points="75.5,582.4163,69.5,600.4163,81.5,600.4163,75.5,582.4163" style="stroke:#181818;stroke-width:1.0;"/></g><!--reverse link IBorrowRepository to BorrowRepository--><g id="link_IBorrowRepository_BorrowRepository"><path codeLine="43" d="M4508.5,600.7763 C4508.5,616.2563 4508.5,619.5663 4508.5,642.1563 " fill="none" id="IBorrowRepository-backto-BorrowRepository" style="stroke:#181818;stroke-width:1.0;stroke-dasharray:7.0,7.0;"/><polygon fill="none" points="4508.5,582.7763,4502.5,600.7763,4514.5,600.7763,4508.5,582.7763" style="stroke:#181818;stroke-width:1.0;"/></g><!--reverse link IPatronRepository to PatronRepository--><g id="link_IPatronRepository_PatronRepository"><path codeLine="44" d="M4072.5,600.7763 C4072.5,621.8163 4072.5,635.5963 4072.5,666.7463 " fill="none" id="IPatronRepository-backto-PatronRepository" style="stroke:#181818;stroke-width:1.0;stroke-dasharray:7.0,7.0;"/><polygon fill="none" points="4072.5,582.7763,4066.5,600.7763,4078.5,600.7763,4072.5,582.7763" style="stroke:#181818;stroke-width:1.0;"/></g><!--reverse link IBorrowService to BorrowService--><g id="link_IBorrowService_BorrowService"><path codeLine="21" d="M4130.5,236.9362 C4130.5,254.8262 4130.5,257.7463 4130.5,278.3963 " fill="none" id="IBorrowService-backto-BorrowService" style="stroke:#181818;stroke-width:1.0;stroke-dasharray:7.0,7.0;"/><polygon fill="none" points="4130.5,218.9362,4124.5,236.9362,4136.5,236.9362,4130.5,218.9362" style="stroke:#181818;stroke-width:1.0;"/></g><!--reverse link BorrowService to IBookRepository--><g id="link_BorrowService_IBookRepository"><path codeLine="58" d="M3864.09,438.1563 C2984.29,438.1563 136.25,438.1563 136.25,438.1563 C136.25,438.1563 136.25,498.8763 136.25,533.9762 " fill="none" id="BorrowService-backto-IBookRepository" style="stroke:#181818;stroke-width:1.0;"/><polygon fill="none" points="3876.09,438.1563,3870.09,434.1563,3864.09,438.1563,3870.09,442.1563,3876.09,438.1563" style="stroke:#181818;stroke-width:1.0;"/></g><!--reverse link SearcherByAuthor to IBookRepository--><g id="link_SearcherByAuthor_IBookRepository"><path codeLine="59" d="M310.06,157.1563 C181.61,157.1563 67.75,157.1563 67.75,157.1563 C67.75,157.1563 67.75,446.7063 67.75,533.7963 " fill="none" id="SearcherByAuthor-backto-IBookRepository" style="stroke:#181818;stroke-width:1.0;"/><polygon fill="none" points="322.06,157.1563,316.06,153.1563,310.06,157.1563,316.06,161.1563,322.06,157.1563" style="stroke:#181818;stroke-width:1.0;"/></g><!--reverse link SearcherByGenre to IBookRepository--><g id="link_SearcherByGenre_IBookRepository"><path codeLine="60" d="M1257.5,222.5562 C1257.5,322.2263 1257.5,559.1563 1257.5,559.1563 C1257.5,559.1563 396.43,559.1563 144.16,559.1563 " fill="none" id="SearcherByGenre-backto-IBookRepository" style="stroke:#181818;stroke-width:1.0;"/><polygon fill="none" points="1257.5,210.5562,1253.5,216.5562,1257.5,222.5562,1261.5,216.5562,1257.5,210.5562" style="stroke:#181818;stroke-width:1.0;"/></g><!--reverse link SearcherByTitle to IBookRepository--><g id="link_SearcherByTitle_IBookRepository"><path codeLine="61" d="M1832.5,222.6862 C1832.5,324.6663 1832.5,571.1563 1832.5,571.1563 C1832.5,571.1563 469.22,571.1563 144.38,571.1563 " fill="none" id="SearcherByTitle-backto-IBookRepository" style="stroke:#181818;stroke-width:1.0;"/><polygon fill="none" points="1832.5,210.6862,1828.5,216.6862,1832.5,222.6862,1836.5,216.6862,1832.5,210.6862" style="stroke:#181818;stroke-width:1.0;"/></g><!--reverse link LoanSearcherByState to IBorrowRepository--><g id="link_LoanSearcherByState_IBorrowRepository"><path codeLine="63" d="M3001,222.6263 C3001,313.8563 3001,515.1563 3001,515.1563 C3001,515.1563 4483.33,515.1563 4483.33,515.1563 C4483.33,515.1563 4483.33,524.1663 4483.33,533.9463 " fill="none" id="LoanSearcherByState-backto-IBorrowRepository" style="stroke:#181818;stroke-width:1.0;"/><polygon fill="none" points="3001,210.6263,2997,216.6263,3001,222.6263,3005,216.6263,3001,210.6263" style="stroke:#181818;stroke-width:1.0;"/></g><!--reverse link BorrowService to IBorrowRepository--><g id="link_BorrowService_IBorrowRepository"><path codeLine="64" d="M4294.75,486.7563 C4294.75,530.0063 4294.75,559.1563 4294.75,559.1563 C4294.75,559.1563 4371.1,559.1563 4432.54,559.1563 " fill="none" id="BorrowService-backto-IBorrowRepository" style="stroke:#181818;stroke-width:1.0;"/><polygon fill="none" points="4294.75,474.7563,4290.75,480.7563,4294.75,486.7563,4298.75,480.7563,4294.75,474.7563" style="stroke:#181818;stroke-width:1.0;"/></g><!--reverse link SearcherForLoansbyPatron to IBorrowRepository--><g id="link_SearcherForLoansbyPatron_IBorrowRepository"><path codeLine="65" d="M3618,222.8663 C3618,310.1962 3618,495.1563 3618,495.1563 C3618,495.1563 4533.67,495.1563 4533.67,495.1563 C4533.67,495.1563 4533.67,516.2563 4533.67,534.0563 " fill="none" id="SearcherForLoansbyPatron-backto-IBorrowRepository" style="stroke:#181818;stroke-width:1.0;"/><polygon fill="none" points="3618,210.8663,3614,216.8663,3618,222.8663,3622,216.8663,3618,210.8663" style="stroke:#181818;stroke-width:1.0;"/></g><!--reverse link SearcherByName to IPatronRepository--><g id="link_SearcherByName_IPatronRepository"><path codeLine="67" d="M2415.5,222.7363 C2415.5,320.2563 2415.5,547.1563 2415.5,547.1563 C2415.5,547.1563 3725.62,547.1563 4055.71,547.1563 " fill="none" id="SearcherByName-backto-IPatronRepository" style="stroke:#181818;stroke-width:1.0;"/><polygon fill="none" points="2415.5,210.7363,2411.5,216.7363,2415.5,222.7363,2419.5,216.7363,2415.5,210.7363" style="stroke:#181818;stroke-width:1.0;"/></g><!--reverse link BorrowService to IPatronRepository--><g id="link_BorrowService_IPatronRepository"><path codeLine="68" d="M4130.5,486.5563 C4130.5,508.6963 4130.5,518.2663 4130.5,533.9663 " fill="none" id="BorrowService-backto-IPatronRepository" style="stroke:#181818;stroke-width:1.0;"/><polygon fill="none" points="4130.5,474.5563,4126.5,480.5563,4130.5,486.5563,4134.5,480.5563,4130.5,474.5563" style="stroke:#181818;stroke-width:1.0;"/></g><!--link SearcherByName to ISearchStrategy--><g id="link_SearcherByName_ISearchStrategy"><path codeLine="70" d="M2231.5,210.4462 C2231.5,270.7263 2231.5,377.1563 2231.5,377.1563 C2231.5,377.1563 641.41,377.1563 284.93,377.1563 " fill="none" id="SearcherByName-to-ISearchStrategy" style="stroke:#181818;stroke-width:1.0;stroke-dasharray:7.0,7.0;"/><polygon fill="none" points="266.93,377.1563,284.93,383.1563,284.93,371.1563,266.93,377.1563" style="stroke:#181818;stroke-width:1.0;"/></g><!--link LoanSearcherByState to ISearchStrategy--><g id="link_LoanSearcherByState_ISearchStrategy"><path codeLine="71" d="M2697.5,210.7363 C2697.5,273.1063 2697.5,385.1563 2697.5,385.1563 C2697.5,385.1563 688.74,385.1563 284.97,385.1563 " fill="none" id="LoanSearcherByState-to-ISearchStrategy" style="stroke:#181818;stroke-width:1.0;stroke-dasharray:7.0,7.0;"/><polygon fill="none" points="266.97,385.1563,284.97,391.1563,284.97,379.1563,266.97,385.1563" style="stroke:#181818;stroke-width:1.0;"/></g><!--link SearcherByTitle to ISearchStrategy--><g id="link_SearcherByTitle_ISearchStrategy"><path codeLine="72" d="M1652.5,210.7963 C1652.5,269.0563 1652.5,369.1563 1652.5,369.1563 C1652.5,369.1563 573.85,369.1563 284.7,369.1563 " fill="none" id="SearcherByTitle-to-ISearchStrategy" style="stroke:#181818;stroke-width:1.0;stroke-dasharray:7.0,7.0;"/><polygon fill="none" points="266.7,369.1563,284.7,375.1563,284.7,363.1563,266.7,369.1563" style="stroke:#181818;stroke-width:1.0;"/></g><!--link SearcherByGenre to ISearchStrategy--><g id="link_SearcherByGenre_ISearchStrategy"><path codeLine="73" d="M1077.5,210.5562 C1077.5,266.6563 1077.5,361.1563 1077.5,361.1563 C1077.5,361.1563 492.72,361.1563 284.92,361.1563 " fill="none" id="SearcherByGenre-to-ISearchStrategy" style="stroke:#181818;stroke-width:1.0;stroke-dasharray:7.0,7.0;"/><polygon fill="none" points="266.92,361.1563,284.92,367.1563,284.92,355.1563,266.92,361.1563" style="stroke:#181818;stroke-width:1.0;"/></g><!--link SearcherByAuthor to ISearchStrategy--><g id="link_SearcherByAuthor_ISearchStrategy"><path codeLine="74" d="M322.21,184.1563 C252.9,184.1563 197.5,184.1563 197.5,184.1563 C197.5,184.1563 197.5,282.3563 197.5,334.0963 " fill="none" id="SearcherByAuthor-to-ISearchStrategy" style="stroke:#181818;stroke-width:1.0;stroke-dasharray:7.0,7.0;"/><polygon fill="none" points="197.5,352.0963,203.5,334.0963,191.5,334.0963,197.5,352.0963" style="stroke:#181818;stroke-width:1.0;"/></g><!--link SearcherForLoansbyPatron to ISearchStrategy--><g id="link_SearcherForLoansbyPatron_ISearchStrategy"><path codeLine="75" d="M3329,210.6862 C3329,275.0463 3329,393.1563 3329,393.1563 C3329,393.1563 745.95,393.1563 284.93,393.1563 " fill="none" id="SearcherForLoansbyPatron-to-ISearchStrategy" style="stroke:#181818;stroke-width:1.0;stroke-dasharray:7.0,7.0;"/><polygon fill="none" points="266.93,393.1563,284.93,399.1563,284.93,387.1563,266.93,393.1563" style="stroke:#181818;stroke-width:1.0;"/></g><!--SRC=[HSd13O0W30NGErFW0kxX60I_iH5fyrjCsDx4YzVt_99kXUNEJJfY6h8oJaqXqP2tVh30WwF6859QfDSsTcJ2r2MKSxLnjpySVAJ2Ftu1]--></g></svg>